<svg xmlns="http://www.w3.org/2000/svg" xmlns:xlink="http://www.w3.org/1999/xlink" viewBox="0 0 1055.55 796.68"><defs><style>.cls-1{fill:none;}.cls-2{clip-path:url(#clip-path);}.cls-3{clip-path:url(#clip-path-2);}.cls-4{fill:#16302d;}.cls-5{opacity:0.1;}.cls-6{clip-path:url(#clip-path-5);}.cls-7{clip-path:url(#clip-path-6);}.cls-8{fill:#70b3a7;}.cls-10,.cls-9{fill:#a39d81;}.cls-10{font-size:11.2px;font-family:Lato-Regular, Lato;}</style><clipPath id="clip-path" transform="translate(134.67 81.3)"><circle class="cls-1" cx="206.28" cy="206.28" r="206.28"/></clipPath><clipPath id="clip-path-2" transform="translate(134.67 81.3)"><rect class="cls-1" x="-134.72" y="-80.42" width="842" height="595"/></clipPath><clipPath id="clip-path-5" transform="translate(134.67 81.3)"><rect class="cls-1" x="-133.86" y="-81.3" width="1054.74" height="796.68"/></clipPath><clipPath id="clip-path-6" transform="translate(134.67 81.3)"><rect class="cls-1" x="-133.86" y="-81.16" width="841.89" height="595.28"/></clipPath></defs><title>Asset 1</title><g id="Layer_2" data-name="Layer 2"><g id="Layer_1-2" data-name="Layer 1"><g class="cls-2"><g class="cls-3"><g class="cls-3"><rect class="cls-4" y="0.88" width="841.89" height="595"/><g class="cls-3"><g class="cls-5"><g class="cls-6"><g class="cls-7"><path class="cls-8" d="M851.11-81.11c8.83,0,18.25.69,26.35,3.78C907.12-66,923.27-38.49,920.59-6.18,918.23,22.37,895.05,48,866.48,53.56c-30.1,5.9-59.58-7.47-73.61-35.74C787.13,6.25,780.44,2.89,768.15,3q-120.51.73-241,0c-12-.06-18.82,2.52-24.75,14.52-15.5,31.4-49.66,44.22-81.88,33.26-32.73-11.13-51.39-41.86-46.05-75.8,5.25-33.29,32.8-56.09,68.36-56.14q101.62-.17,203.26,0c68.35,0,136.7-.15,205.05.14M444.58-47.68c-22.07,0-36.73,12.43-38.39,31.8-1.42,16.45,11.59,32.32,30.33,37,15.89,4,36.22-8.92,39.19-28.1,3-19.44,11.65-24.5,30.91-24.27,92.32,1.09,184.66.49,277,.48,27.36,0,27.75-.11,35.41,26.26,4.64,16,16.32,25.55,30.86,25.52,10.28,0,22.19-7.47,30.4-14.89,10-9,10.17-22.11,4.06-34.62-6.43-13.15-16.5-19.44-31.45-19.39-68.95.27-137.9.12-206.86.12q-100.72,0-201.46.08" transform="translate(134.67 81.3)"/><path class="cls-8" d="M522.42,305.26l-.65-.17v63.06l.94.11V715.38H772.58V486.31H772V243.64h.81c-.09-68.76-.23-137.51.43-206.26.17-17-5.44-21.22-21.48-21.06q-105.3,1-210.6,0c-15.35-.16-19.09,5.1-19,19.65.57,82.8.24,165.6.22,248.41v20.9M698.68,638.65q.24-122.39.25-244.77c0-25.34.05-25.33,25.65-27.31,1-.08,2-1,4-2V323.39c-29.7-2.89-29.7-2.89-29.71-31.49q0-38.7,0-77.39c0-33.6-.18-67.2,0-100.79.08-13.9,6.92-23.36,21.27-23.85,14.58-.5,21.51,8.61,22.22,22.67.24,4.79.13,9.6.13,14.4q0,114.29,0,228.57,0,142.19-.13,284.37c0,20.11-8.48,29.65-24,27.71-17.19-2.16-19.79-14.56-19.76-28.94m-42-272.83V323.66c-4.19-.74-6.58-1.71-8.84-1.47-19.39,2-23.84-7.37-23.38-25.45,1.2-46.77.42-93.58.45-140.37,0-14.4-.38-28.81.19-43.19.54-13.77,8-23.06,22-23.26s21.3,9.11,22.78,22.78a84.18,84.18,0,0,1,.09,9V638.22c0,3,.36,6.07-.14,9-2,11.92-8.4,20-21.12,20.41-13.33.46-21.17-6.73-23.51-19.75a51.6,51.6,0,0,1-.33-9q0-128.68.06-257.37c0-4.53,1.07-9.06,1.61-13.28l30.12-2.42m-92.66-51c-10.55.9-14.58-4.66-14.53-15.32.31-60.52-.07-121,.28-181.57.1-16.65,10.71-28.43,23.92-28.23,17.23.26,21.13,13,23.65,26.48.65,3.48.19,7.17.19,10.77q0,252.59-.13,505.17c0,6.46.45,14.51-3,19-5.21,6.82-13.64,15.35-20.75,15.4s-15.63-8.39-20.91-15.16c-3.44-4.41-3-12.47-3-18.91q-.25-124-.07-248.09c0-5.2.64-10.4,1-16.2l31.36-2.05c0-10.84-.75-20.92.17-30.85,1.3-14-2.52-21.81-18.25-20.45" transform="translate(134.67 81.3)"/></g></g></g></g><path class="cls-9" d="M63.62,298.54c-3.14,0-5.45-.82-6.91-2.46a9,9,0,0,1-2.18-6.2v-7.27h5.19v6.45q0,5,5.46,5h4.34V263.31h5.2v35.23ZM99.1,287.42a.3.3,0,0,1,.3.15.53.53,0,0,1,.07.22v3.74a.49.49,0,0,1-.07.24.31.31,0,0,1-.3.13H96.76Q96.43,296.12,94,298a14.38,14.38,0,0,1-6.73,2.61L85.22,296a15.8,15.8,0,0,0,3.66-.84,4.28,4.28,0,0,0,2.05-1.61,5.17,5.17,0,0,0,.71-2.89V277.75a12.51,12.51,0,0,0-2.38-.26q-4.52,0-4.52,5.12a5,5,0,0,0,1.17,3.52,4.28,4.28,0,0,0,3.35,1.29H90.9l-2,4.48h-.52a9.32,9.32,0,0,1-4.62-1.16,8.22,8.22,0,0,1-3.23-3.28,10.07,10.07,0,0,1-1.17-4.93,9.59,9.59,0,0,1,1.27-4.87,8.81,8.81,0,0,1,3.54-3.41A10.88,10.88,0,0,1,89.45,273a52.07,52.07,0,0,1,7.39.75v13.66Zm9.54-3.47a10.22,10.22,0,0,1-.22,2.09,4.35,4.35,0,0,0,3.6,1.38.29.29,0,0,1,.29.13.52.52,0,0,1,.08.24v3.74a.52.52,0,0,1-.08.24.29.29,0,0,1-.29.13,7.07,7.07,0,0,1-2.68-.6,7.54,7.54,0,0,1-2.59-1.79,6.64,6.64,0,0,1-5.35,2.39H99.1a.31.31,0,0,1-.3-.13.49.49,0,0,1-.07-.24v-3.74a.49.49,0,0,1,.07-.24.31.31,0,0,1,.3-.13h.74a3.31,3.31,0,0,0,2.55-1.18,4.49,4.49,0,0,0,1-3.11V263.31h5.2V284ZM121.3,273a10.84,10.84,0,0,1,6.14,1.74,9.77,9.77,0,0,1,3.77,4.72l2,5.15a3.9,3.9,0,0,0,1.73,2.05,4.72,4.72,0,0,0,2.46.75.31.31,0,0,1,.3.13.49.49,0,0,1,.07.24v3.74a.49.49,0,0,1-.07.24.31.31,0,0,1-.3.13q-5.16,0-7.57-2.69a21.35,21.35,0,0,1-5.42,2,25.93,25.93,0,0,1-5.82.69H112a.31.31,0,0,1-.3-.13.49.49,0,0,1-.07-.24v-3.74a.49.49,0,0,1,.07-.24.31.31,0,0,1,.3-.13h6.57a40.43,40.43,0,0,0,5.06-.28,19.08,19.08,0,0,0,4.47-1.14l-1.7-4.14a5.92,5.92,0,0,0-2.27-2.82,6.49,6.49,0,0,0-3.63-1,9.56,9.56,0,0,0-4.27.94l-1.89-4.26A14.59,14.59,0,0,1,121.3,273Zm16.1,18.89a.3.3,0,0,1-.29-.13.52.52,0,0,1-.08-.24v-3.74a.52.52,0,0,1,.08-.24.3.3,0,0,1,.29-.13h3.72V263.31h5.15V291.9Zm15.18,0V263.31h5.2V291.9Zm34.63-1.79a16.29,16.29,0,0,1-5,1.36,48,48,0,0,1-6.59.43h-4.9l-2-4.48H175a31.15,31.15,0,0,0,7.09-.63L176.82,273h5.57l5.71,15Zm5.35,1.79V263.31h5.19V291.9ZM212.49,273a51.82,51.82,0,0,1,7.38.75v16.68a11.23,11.23,0,0,1-1.18,5.56,7.57,7.57,0,0,1-3.25,3.12,17.49,17.49,0,0,1-5.1,1.51L208.26,296a15.58,15.58,0,0,0,3.65-.84,4.26,4.26,0,0,0,2.06-1.61,5.17,5.17,0,0,0,.71-2.89V277.75a12.51,12.51,0,0,0-2.38-.26c-3,0-4.52,1.71-4.52,5.12a5,5,0,0,0,1.16,3.52,4.3,4.3,0,0,0,3.36,1.29h1.64l-2,4.48h-.52a9.29,9.29,0,0,1-4.62-1.16,8.22,8.22,0,0,1-3.23-3.28,10.07,10.07,0,0,1-1.17-4.93,9.49,9.49,0,0,1,1.27-4.87,8.81,8.81,0,0,1,3.54-3.41,10.85,10.85,0,0,1,5.29-1.24Zm18.45,17.77c0,3.23-.75,5.62-2.25,7.15a9.32,9.32,0,0,1-5.81,2.7L220.8,296a11.84,11.84,0,0,0,2.86-.71,3.08,3.08,0,0,0,1.56-1.48,6.33,6.33,0,0,0,.52-2.85V273.39h5.2v17.39ZM252.72,273a52.07,52.07,0,0,1,7.39.75l0,10.11a4.12,4.12,0,0,0,.72,2.75,2.77,2.77,0,0,0,2.14.8h.74a.31.31,0,0,1,.3.13.49.49,0,0,1,.07.24v3.74a.49.49,0,0,1-.07.24.31.31,0,0,1-.3.13h-2.3a6.05,6.05,0,0,1-4.83-1.94,7.81,7.81,0,0,1-1.67-5.26v-6.95a12.19,12.19,0,0,0-2.33-.26q-4.53,0-4.53,5.12a5,5,0,0,0,1.17,3.52,4.3,4.3,0,0,0,3.36,1.29h1.93l-2,4.48h-.74a9.4,9.4,0,0,1-4.64-1.16,8.32,8.32,0,0,1-3.27-3.28,10,10,0,0,1-1.18-4.93,9.58,9.58,0,0,1,1.26-4.87,8.81,8.81,0,0,1,3.54-3.41,10.88,10.88,0,0,1,5.29-1.24Zm-6.31-2.8v-4.7h5.35v4.7Zm7.43,0v-4.7h5.34v4.7Zm23.53,4.67c3.26,0,5.74.75,7.42,2.24a8.18,8.18,0,0,1,2.52,6.46,15.16,15.16,0,0,1-.7,4.33,29,29,0,0,1-1.49,4H263.67a.31.31,0,0,1-.3-.13.49.49,0,0,1-.07-.24v-3.74a.49.49,0,0,1,.07-.24.31.31,0,0,1,.3-.13h17.74a11.06,11.06,0,0,0,.71-3.47,4.11,4.11,0,0,0-1.45-3.53,7.1,7.1,0,0,0-4.23-1.06h-9.17l-2-4.48,10.43-11.57H282l-11.43,11.57Zm24.38,12.54a.3.3,0,0,1,.3.15.53.53,0,0,1,.07.22v3.74a.49.49,0,0,1-.07.24.31.31,0,0,1-.3.13,7.32,7.32,0,0,1-3.75-1.16v0c0,3.23-.75,5.62-2.24,7.15a9.34,9.34,0,0,1-5.81,2.7L287.87,296a12,12,0,0,0,2.86-.71,3.08,3.08,0,0,0,1.56-1.48,6.47,6.47,0,0,0,.52-2.85V273.39H298v12.43a4.35,4.35,0,0,0,3.75,1.6ZM326,291.9a7.48,7.48,0,0,1-6.05-2.46,6.64,6.64,0,0,1-5.38,2.46H301.75a.31.31,0,0,1-.3-.13.49.49,0,0,1-.07-.24v-3.74a.49.49,0,0,1,.07-.24.31.31,0,0,1,.3-.13h3.71v-14h5.2v14H313a3.27,3.27,0,0,0,2.54-1.18,4.45,4.45,0,0,0,1.06-3.11v-9.74h5.2v10.78a2.85,2.85,0,0,0,1.67,2.43,7.26,7.26,0,0,0,3.45.82h2.3v-15.6h5.2V291.9Zm-13.1-21.69v-4.7h5.34v4.7Zm3.93-6.23v-4.25h4.83V264Zm3.49,6.23v-4.7h5.35v4.7Z" transform="translate(134.67 81.3)"/><path class="cls-9" d="M60.09,307.51a11.82,11.82,0,0,1,2.09.21l1.23.21v6.86a1.92,1.92,0,0,0,.45,1.42,1.87,1.87,0,0,0,1.39.45h.43a.19.19,0,0,1,.17.08.38.38,0,0,1,0,.13v.77a.43.43,0,0,1,0,.14.18.18,0,0,1-.17.07h-.47A2.83,2.83,0,0,1,62.9,317a3.37,3.37,0,0,1-.72-2.24V309a13.7,13.7,0,0,0-2.2-.32,3.73,3.73,0,0,0-2.11.59,3.81,3.81,0,0,0-1.32,1.57,4.76,4.76,0,0,0-.44,2,4.08,4.08,0,0,0,.42,1.82,3.42,3.42,0,0,0,1.26,1.41,3.6,3.6,0,0,0,2,.54h1.78L61,317.85H59.9a5.14,5.14,0,0,1-2.78-.72,4.54,4.54,0,0,1-1.71-1.9,5.63,5.63,0,0,1-.57-2.51,5.52,5.52,0,0,1,.6-2.51,5,5,0,0,1,1.79-1.95,5.23,5.23,0,0,1,2.86-.75Zm-2.61-2v-1.85h1.4v1.85Zm3.86,0v-1.85h1.39v1.85Zm10.46,8.18a4.21,4.21,0,0,1-.22,1.23A2.82,2.82,0,0,0,73,316.17a5.35,5.35,0,0,0,2.42.49.18.18,0,0,1,.17.08.27.27,0,0,1,0,.13v.77a.3.3,0,0,1,0,.14c0,.05-.08.07-.17.07a6.55,6.55,0,0,1-2.6-.45,4.24,4.24,0,0,1-1.72-1.4,4,4,0,0,1-3.43,1.85H65.68c-.09,0-.14,0-.17-.07a.3.3,0,0,1-.05-.14v-.77a.27.27,0,0,1,.05-.13.18.18,0,0,1,.17-.08h1.9a2.84,2.84,0,0,0,2.16-.87,3,3,0,0,0,.83-2.15v-5.92H71.8v5.94Zm-4,8.75v-1.85h1.4v1.85Zm3.86,0v-1.85H73v1.85Zm3.74-4.56a.18.18,0,0,1-.17-.07.43.43,0,0,1,0-.14v-.77a.38.38,0,0,1,0-.13.19.19,0,0,1,.17-.08h3v-8.94h1.23v10.13Zm2.88-12.37v-1.85h1.4v1.85Zm15.59,11.18a.19.19,0,0,1,.17.08.38.38,0,0,1,0,.13v.77a.43.43,0,0,1,0,.14.18.18,0,0,1-.17.07H91.23v.3q0,3.94-4.55,4.69l-.51-1.13A6,6,0,0,0,89,320.58a2.89,2.89,0,0,0,1-2.34V309a10.17,10.17,0,0,0-2.2-.3,3.73,3.73,0,0,0-2.11.59,3.81,3.81,0,0,0-1.32,1.57,4.91,4.91,0,0,0-.44,2,4.08,4.08,0,0,0,.42,1.82,3.42,3.42,0,0,0,1.26,1.41,3.6,3.6,0,0,0,2,.54h1.57l-.53,1.19h-.93a5.14,5.14,0,0,1-2.78-.72,4.54,4.54,0,0,1-1.71-1.9,5.63,5.63,0,0,1-.57-2.51,5.52,5.52,0,0,1,.6-2.51,5,5,0,0,1,1.79-1.95,5.23,5.23,0,0,1,2.86-.75,12.93,12.93,0,0,1,2.6.34l.72.15v8.66Zm0,1.19c-.09,0-.15,0-.17-.07a.3.3,0,0,1,0-.14v-.77a.27.27,0,0,1,0-.13c0-.05.08-.08.17-.08h3v-8.94h1.23v10.13Zm2.88-12.37v-1.85h1.39v1.85Zm6.16,9.31a1.92,1.92,0,0,0,.44,1.42,1.9,1.9,0,0,0,1.4.45h.42a.18.18,0,0,1,.17.08.24.24,0,0,1,0,.13v.77a.27.27,0,0,1,0,.14c0,.05-.08.07-.17.07h-.46a2.83,2.83,0,0,1-2.31-.86,3.37,3.37,0,0,1-.72-2.24V301.54h1.23v13.25Zm9.35-7.28a17.4,17.4,0,0,1,3.54.49v4.62a6,6,0,0,1-.47,2.47,3.08,3.08,0,0,0,1.11,1.13,3.23,3.23,0,0,0,1.75.44.18.18,0,0,1,.17.08.24.24,0,0,1,0,.13v.77a.27.27,0,0,1,0,.14c0,.05-.08.07-.17.07a4,4,0,0,1-3.43-1.74,4.63,4.63,0,0,1-4,1.74h-5.63a.18.18,0,0,1-.17-.07.27.27,0,0,1,0-.14v-.77a.24.24,0,0,1,0-.13.19.19,0,0,1,.17-.08H109a3.94,3.94,0,0,1-1.51-1.65,5.1,5.1,0,0,1-.51-2.29,5.53,5.53,0,0,1,.61-2.51,5,5,0,0,1,1.79-1.95,5.22,5.22,0,0,1,2.85-.75Zm-.1,1.19a3.73,3.73,0,0,0-2.11.59,3.81,3.81,0,0,0-1.32,1.57,4.77,4.77,0,0,0-.45,2,4.12,4.12,0,0,0,.41,1.79,3.42,3.42,0,0,0,1.19,1.4,3.6,3.6,0,0,0,1.92.58,3.46,3.46,0,0,0,2.06-1.35,4.31,4.31,0,0,0,.71-2.57V309a10.82,10.82,0,0,0-2.41-.32Zm-2.63-3.22v-1.85h1.4v1.85Zm3.86,0v-1.85h1.39v1.85Zm4.8,12.37a.18.18,0,0,1-.17-.07.43.43,0,0,1,0-.14v-.77a.38.38,0,0,1,0-.13.19.19,0,0,1,.17-.08h3V301.54h1.23v16.31Zm8.45,0V301.54h1.23v16.31Zm15.27,0a6,6,0,0,1-2.39-.46,4,4,0,0,1-1.7-1.4,3.83,3.83,0,0,1-.64-2.2V310.7h1.23v3.09a2.63,2.63,0,0,0,.92,2,3.87,3.87,0,0,0,2.66.82h9.63v-8.94h1.23v10.13Zm.31-10.56v-1.85h1.4v1.85Zm3.86,0v-1.85h1.39v1.85Zm10.58,10.56V301.54h1.23v16.31Zm6.5.28a4.89,4.89,0,0,1-.9,3.09,5,5,0,0,1-2.8,1.62l-.51-1.13a3.41,3.41,0,0,0,2.24-1,3.56,3.56,0,0,0,.74-2.44v-10.5h1.23v10.41Zm4.83-3.34a2,2,0,0,0,.44,1.42,1.91,1.91,0,0,0,1.4.45h.43a.19.19,0,0,1,.17.08.38.38,0,0,1,0,.13v.77a.43.43,0,0,1,0,.14.18.18,0,0,1-.17.07h-.47a2.83,2.83,0,0,1-2.31-.86,3.37,3.37,0,0,1-.72-2.24V301.54H168v13.25Zm20.09-1.13a4.36,4.36,0,0,1-.19,1.28,2.87,2.87,0,0,0,1.08,1.24,3.34,3.34,0,0,0,1.84.48.18.18,0,0,1,.17.08.27.27,0,0,1,.05.13v.77a.3.3,0,0,1-.05.14c0,.05-.08.07-.17.07a4,4,0,0,1-3.45-1.81,3.76,3.76,0,0,1-3.34,1.81,4.32,4.32,0,0,1-3.77-2.27,4.36,4.36,0,0,1-1.47,1.64,3.94,3.94,0,0,1-2.21.63h-6.31c-.09,0-.15,0-.17-.07a.3.3,0,0,1-.05-.14v-.77a.27.27,0,0,1,.05-.13c0-.05.08-.08.17-.08h3v-8.94h1.23v8.94h2.05a2.84,2.84,0,0,0,2.16-.87,3,3,0,0,0,.83-2.15v-5.92h1.23v5.94a2.42,2.42,0,0,0,.47,1.4,3.76,3.76,0,0,0,1.23,1.15,3,3,0,0,0,1.54.45,2.67,2.67,0,0,0,2.1-.87,3.1,3.1,0,0,0,.77-2.15v-6.82h1.23v6.84Zm-10.48-8.18v-1.85H179v1.85Zm1.93-3.55v-1.85h1.4v1.85Zm1.93,3.55v-1.85h1.39v1.85Zm15.47,8.18a4.18,4.18,0,0,1-.21,1.23,2.82,2.82,0,0,0,1.37,1.28,5.32,5.32,0,0,0,2.42.49.18.18,0,0,1,.17.08.24.24,0,0,1,0,.13v.77a.27.27,0,0,1,0,.14c0,.05-.08.07-.17.07a6.55,6.55,0,0,1-2.6-.45,4.11,4.11,0,0,1-1.72-1.4,4.05,4.05,0,0,1-1.44,1.35,3.9,3.9,0,0,1-2,.5h-1.95a.18.18,0,0,1-.17-.07.43.43,0,0,1,0-.14v-.77a.38.38,0,0,1,0-.13.19.19,0,0,1,.17-.08h1.91a2.84,2.84,0,0,0,2.16-.87,3,3,0,0,0,.82-2.15v-5.92h1.23v5.94Zm-3.34-8.18v-1.85H195v1.85Zm3.85,0v-1.85h1.4v1.85Zm17.47,12.37a5.55,5.55,0,0,1-2.52-.56,4.83,4.83,0,0,1-1.89-1.71,4.28,4.28,0,0,1-1.47,1.64,3.94,3.94,0,0,1-2.21.63h-6.31a.18.18,0,0,1-.17-.07.27.27,0,0,1,0-.14v-.77a.24.24,0,0,1,0-.13.19.19,0,0,1,.17-.08h3v-8.94h1.22v8.94h2.06a2.84,2.84,0,0,0,2.16-.87,3,3,0,0,0,.82-2.15v-5.92H211v6a2.56,2.56,0,0,0,.56,1.37,4,4,0,0,0,1.34,1.1,3.61,3.61,0,0,0,1.68.42H217v-9.84h1.22v11Zm15.22-12.73a13.26,13.26,0,0,1-.72,4.58,8.28,8.28,0,0,1,2.63,6.11,9.85,9.85,0,0,1-.22,2H221.1l-.53-1.19a30.22,30.22,0,0,0,4.21-3,14.45,14.45,0,0,0,3.08-3.61,16.56,16.56,0,0,0-2.87-1.74,17.22,17.22,0,0,0-3.13-1.2v-1.29a24.2,24.2,0,0,1,6.59,3.15,14.75,14.75,0,0,0,.42-3.88v-4h1.23v4Zm-1.33,5.69a17,17,0,0,1-6.35,5.85h8.29a2.44,2.44,0,0,0,.07-.59,8.52,8.52,0,0,0-.43-2.82,6.81,6.81,0,0,0-1.58-2.44Zm6.62,7V301.54h1.23v16.31Zm15.27-10.34a12.93,12.93,0,0,1,2.6.34l.72.15v10.15c0,2.63-1.51,4.19-4.55,4.69l-.51-1.13a6,6,0,0,0,2.87-1.13,2.9,2.9,0,0,0,1-2.34V309a10.25,10.25,0,0,0-2.21-.3,3.68,3.68,0,0,0-2.1.59,3.76,3.76,0,0,0-1.33,1.57,4.91,4.91,0,0,0-.44,2,4.08,4.08,0,0,0,.42,1.82,3.42,3.42,0,0,0,1.26,1.41,3.63,3.63,0,0,0,2,.54h1.57l-.53,1.19h-.93a5.08,5.08,0,0,1-2.77-.72,4.5,4.5,0,0,1-1.72-1.9,5.63,5.63,0,0,1-.57-2.51,5.52,5.52,0,0,1,.6-2.51,5,5,0,0,1,1.79-1.95,5.23,5.23,0,0,1,2.86-.75Zm16.94,0a12.48,12.48,0,0,1,2.52.32l.8.17v9.85h-1.23V309a9.76,9.76,0,0,0-2.2-.32,3.73,3.73,0,0,0-2.11.59,3.81,3.81,0,0,0-1.32,1.57,4.76,4.76,0,0,0-.44,2,4.08,4.08,0,0,0,.42,1.82,3.42,3.42,0,0,0,1.26,1.41,3.6,3.6,0,0,0,2,.54h1.57l-.53,1.19h-.93a5.14,5.14,0,0,1-2.78-.72,4.54,4.54,0,0,1-1.71-1.9,5.63,5.63,0,0,1-.57-2.51,5.52,5.52,0,0,1,.6-2.51,5,5,0,0,1,1.79-1.95,5.23,5.23,0,0,1,2.86-.75Zm-2.61-2v-1.85h1.4v1.85Zm3.86,0v-1.85h1.39v1.85Zm6.9,9.31a2,2,0,0,0,.44,1.42,1.91,1.91,0,0,0,1.4.45H278a.18.18,0,0,1,.17.08.27.27,0,0,1,.05.13v.77a.3.3,0,0,1-.05.14c0,.05-.08.07-.17.07h-.46a2.83,2.83,0,0,1-2.31-.86,3.37,3.37,0,0,1-.72-2.24V301.54h1.23v13.25Zm7.6-7.28a5.76,5.76,0,0,1,3,.73,4.45,4.45,0,0,1,1.76,1.92,5.79,5.79,0,0,1,.57,2.56,9.73,9.73,0,0,1-.4,2.63,12.45,12.45,0,0,1-.94,2.5H278a.18.18,0,0,1-.17-.07.43.43,0,0,1,0-.14v-.77a.38.38,0,0,1,0-.13.19.19,0,0,1,.17-.08H280V308a16.9,16.9,0,0,1,3.39-.44Zm-.06,1.19a10.08,10.08,0,0,0-2.1.23v7.73h5.42a9.44,9.44,0,0,0,.83-3.89,4.43,4.43,0,0,0-1-2.86,3.83,3.83,0,0,0-3.17-1.21Zm10.14,6.09a2,2,0,0,0,.44,1.42,1.9,1.9,0,0,0,1.4.45h.42a.18.18,0,0,1,.17.08.24.24,0,0,1,0,.13v.77a.27.27,0,0,1,0,.14c0,.05-.08.07-.17.07h-.46a2.83,2.83,0,0,1-2.31-.86,3.37,3.37,0,0,1-.72-2.24V301.54h1.23v13.25Zm7.34-7.28a4.42,4.42,0,0,1,3.25,1.24,9.51,9.51,0,0,1,2.09,3.36l1.16,2.95a2.37,2.37,0,0,0,1,1.22,3.4,3.4,0,0,0,1.72.38.18.18,0,0,1,.17.08.24.24,0,0,1,0,.13v.77a.27.27,0,0,1,0,.14c0,.05-.08.07-.17.07a3.86,3.86,0,0,1-3.3-1.49,11.94,11.94,0,0,1-3.08,1.11,14.72,14.72,0,0,1-3.29.38h-4.6a.18.18,0,0,1-.17-.07.43.43,0,0,1,0-.14v-.77a.38.38,0,0,1,0-.13.19.19,0,0,1,.17-.08h4.6a16,16,0,0,0,5.9-1.13l-.1-.23-1.31-3.17a6.06,6.06,0,0,0-1.75-2.59,4.31,4.31,0,0,0-2.7-.8,5.36,5.36,0,0,0-2.6.75l-.51-1.07a12.73,12.73,0,0,1,1.79-.71,6.13,6.13,0,0,1,1.76-.2Zm14.53,0a5.65,5.65,0,0,1,3,.73,4.89,4.89,0,0,1,1.86,1.92,5.37,5.37,0,0,1,.62,2.52,5.49,5.49,0,0,1-.51,2.38,2.74,2.74,0,0,0,1.08,1.16,3.29,3.29,0,0,0,1.78.44.19.19,0,0,1,.17.08.24.24,0,0,1,0,.13v.77a.27.27,0,0,1,0,.14.18.18,0,0,1-.17.07,4.07,4.07,0,0,1-3.47-1.81,4.41,4.41,0,0,1-1.66,1.33,5.2,5.2,0,0,1-2.26.48H310a.18.18,0,0,1-.17-.07.43.43,0,0,1,0-.14v-.77a.38.38,0,0,1,0-.13.19.19,0,0,1,.17-.08h2V308a16.9,16.9,0,0,1,3.39-.44Zm-.07,1.19a10,10,0,0,0-2.09.23v7.73h2.45a3.87,3.87,0,0,0,2.87-1,3.94,3.94,0,0,0,1-2.91,4.31,4.31,0,0,0-.47-2,3.65,3.65,0,0,0-1.43-1.49,4.51,4.51,0,0,0-2.34-.57Zm12.5,5a3.68,3.68,0,0,1-.22,1.26,2.79,2.79,0,0,0,1.1,1.26,3.35,3.35,0,0,0,1.85.48.19.19,0,0,1,.17.08.24.24,0,0,1,0,.13v.77a.27.27,0,0,1,0,.14.18.18,0,0,1-.17.07A4,4,0,0,1,327,316a4.08,4.08,0,0,1-1.44,1.33,4,4,0,0,1-2,.5h-.47a.18.18,0,0,1-.17-.07.27.27,0,0,1,0-.14v-.77a.24.24,0,0,1,0-.13.19.19,0,0,1,.17-.08h.42a2.84,2.84,0,0,0,2.16-.87,3,3,0,0,0,.83-2.15v-12.1h1.23v12.12Zm2.73,4.19c-.09,0-.14,0-.17-.07a.27.27,0,0,1,0-.14v-.77a.24.24,0,0,1,0-.13.18.18,0,0,1,.17-.08h3V301.54h1.23v16.31Z" transform="translate(134.67 81.3)"/><text class="cls-10" transform="translate(233.1 415.83)">SOLUTIONS PIONEERS LAW FIRM</text><rect class="cls-9" x="188.13" y="412.75" width="38.49" height="0.69"/><rect class="cls-9" x="433" y="412.75" width="38.49" height="0.69"/><g class="cls-3"><path class="cls-9" d="M256.39,190v52.85H218.55V189.93h-3.84c.65,3.31,1.44,6.57,1.9,9.88,1.37,9.95-2.42,18.18-8.85,25.38-7.61,8.52-17.74,12.38-28.46,14.94-15.45,3.69-31.15,3.57-46.81,2.19-13.46-1.19-26.72-3.84-38.93-10-6.29-3.18-12.22-7.1-18.31-10.71a13,13,0,0,1-1.45-1.24l4.48-3.89c1.7,1.14,3.42,2.25,5.1,3.44A86.32,86.32,0,0,0,117,234a168,168,0,0,0,32.09,3.24c3.81,0,7.61-.36,11.42-.53,2.23-.1,3.31-.88,3.29-3.47-.13-12.87-.07-25.76-.05-38.64,0-1.24.16-2.49.27-4.21,2.48.71,4.67,1.15,6.73,2,5.38,2.13,10.69,4.42,16,6.65,1.63.68,2.15,1.87,2.13,3.67-.1,8.29,0,16.59,0,25,8.93-3.92,15.17-16.21,11.17-23.84-2.53-4.84-6.89-7.67-11.55-10-9.3-4.64-19.29-7.26-29.37-9.51-15.69-3.5-31.48-6.63-47.08-10.52a72.05,72.05,0,0,1-27.25-13.15c-15.31-11.95-13.37-33-2.49-44.2,8.32-8.56,18.74-13.13,30-15.44a172.86,172.86,0,0,1,27.4-3.3c7.17-.29,14.41,1,21.61,1.65,1.89.16,3.78.49,5.66.5,27.34,0,54.69-.09,82,.07,10.4.06,20.82.76,30.77,4.25,10.79,3.78,20.52,9.28,27.48,18.71,12.89,17.46,9.11,40.47-8.66,53.58a65,65,0,0,1-31.24,12.35c-3.5.43-7,.8-11,1.24M207.7,117.68a30.73,30.73,0,0,0-2.74,1.81c-2.09,1.92-3.85,1.44-6.19,0A99,99,0,0,0,184.34,112c-12.26-4.93-25.15-7.12-38.27-8.31-12.28-1.12-24.2-.13-35.72,4.42-7.23,2.85-13.76,6.8-17.53,14-4.28,8.1-3.48,18.26,6.54,22.91a53.75,53.75,0,0,0,9.06,3.6c14.25,3.7,28.55,7.21,42.84,10.75,4,1,8,1.87,12.57,2.92v-51a7.76,7.76,0,0,1,1.8,0c7.15,2.53,14.28,5.12,21.43,7.63,1.82.63,1.79,2,1.78,3.51,0,14.8,0,29.6-.07,44.4,0,2.49.54,3.88,3,4.87A50.91,50.91,0,0,1,208.31,182a2.88,2.88,0,0,0,1.59.89c2.78.09,5.56,0,8.61,0v-3.58c0-13.25.07-26.5-.06-39.74,0-2.59.82-3.23,3.25-3.21q15.95.17,31.89,0c2.32,0,2.89.77,2.87,3-.08,12.61,0,25.21,0,37.82v3.18a50.23,50.23,0,0,0,17.08-7.84c18.62-13,20.15-36.5,3.34-51.73-10.79-9.79-23.88-13.47-38-13.71-15.62-.28-31.25-.06-46.87,0-.65,0-1.3.09-1.64.11l17.36,10.52m39.69,72c0-1.65.12-3.18,0-4.7-.2-2.12.38-3.32,2.76-3.11,1.6.14,2.21-.71,2.2-2.33-.05-9.22,0-18.43,0-27.65,0-2.53-1.63-4.32-3.62-4.29-2.61,0-3.2,2-3.59,4a10,10,0,0,0,0,1.64q0,38.44,0,76.91c0,1-.07,2.21.45,2.89.79,1,2.06,2.34,3.14,2.35s2.37-1.28,3.16-2.31c.53-.67.45-1.9.45-2.88q0-18.88,0-37.77c0-.79-.09-1.58-.15-2.47l-4.75-.31m-11.29-6.47a5.92,5.92,0,0,1,1.34-.22c2.93.31,3.61-1.12,3.54-3.87-.18-7.12-.07-14.25-.07-21.38,0-2.19.06-4.38,0-6.57s-1.21-3.51-3.33-3.54-3.23,1.38-3.45,3.47a12.34,12.34,0,0,0,0,1.36v78.65a7.71,7.71,0,0,0,0,1.36c.3,1.82,1.27,3.05,3.19,3.11a3.23,3.23,0,0,0,3.56-3,7.7,7.7,0,0,0,0-1.36q0-19.59,0-39.19a16.18,16.18,0,0,0-.24-2l-4.56-.37Zm-10.89,0c4.49-.44,4.5-.44,4.5-4.79V166.57c0-5.12,0-10.23,0-15.35,0-2.12-1-3.56-3.22-3.63s-3.25,1.31-3.36,3.45c0,.73,0,1.46,0,2.19q0,17.4,0,34.8,0,21.65,0,43.3c0,3.06,1.28,4.51,3.63,4.22,2.6-.33,3-2.22,3-4.41q0-18.63,0-37.26c0-3.86,0-3.86-3.89-4.16-.16,0-.31-.15-.61-.31Z" transform="translate(134.67 81.3)"/><path class="cls-9" d="M237.71,121.54q15.39,0,30.77,0a10.07,10.07,0,0,1,10.35,8.55,10.25,10.25,0,0,1-7,11.54,9.93,9.93,0,0,1-12.4-5.06c-.89-1.83-1.93-2.22-3.74-2.21q-18.25.09-36.49,0a3.53,3.53,0,0,0-3.75,2.26,10,10,0,0,1-11.14,5.44,10.42,10.42,0,0,1-8.19-9.09,10.23,10.23,0,0,1,6.53-10.84,11.3,11.3,0,0,1,4-.57c10.35,0,20.7,0,31.05,0m0,5.1c-10.44,0-20.88,0-31.32,0a4.83,4.83,0,0,0-4.76,2.95c-.92,1.9-.89,3.9.62,5.27a7.86,7.86,0,0,0,4.6,2.27,4.87,4.87,0,0,0,4.67-3.89c1.16-4,1.22-4,5.36-4,14,0,28,.1,41.94-.07,2.92,0,4.22.74,4.68,3.7s3.53,4.88,5.93,4.27c2.84-.71,4.81-3.13,4.6-5.63-.25-3-2.47-4.84-5.82-4.84q-15.24,0-30.5,0" transform="translate(134.67 81.3)"/></g></g></g></g></g></g></svg>